STARTFONT 2.1
FONT calc.12x16
SIZE 14 80 80
FONTBOUNDINGBOX 12 16 0 -4

STARTPROPERTIES 9
POINT_SIZE 140
WEIGHT 10
RESOLUTION_X 80
RESOLUTION_Y 80
X_HEIGHT 0
QUAD_WIDTH 12
DEFAULT_CHAR 32
FONT_DESCENT 4
FONT_ASCENT 12
ENDPROPERTIES

CHARS 256

STARTCHAR onx0
ENCODING 0
SWIDTH 750 0
DWIDTH 12 0
BBX 12 16 0 -4
BITMAP
0000
0000
0000
0000
0000
0000
0000
0000
0000
0000
0000
0000
0000
0000
0000
0000
ENDCHAR

STARTCHAR onx1
ENCODING 1
SWIDTH 750 0
DWIDTH 12 0
BBX 12 16 0 -4
BITMAP
0780
0FC0
1860
1020
3CF0
3CF0
3030
3030
3CF0
3CF0
1320
1B60
0FC0
0780
0000
0000
ENDCHAR

STARTCHAR onx2
ENCODING 2
SWIDTH 750 0
DWIDTH 12 0
BBX 12 16 0 -4
BITMAP
0780
0FC0
1FE0
3FF0
3330
37B0
3CF0
3FF0
3330
3330
1860
1CE0
0FC0
0780
0000
0000
ENDCHAR

STARTCHAR onx3
ENCODING 3
SWIDTH 750 0
DWIDTH 12 0
BBX 12 16 0 -4
BITMAP
0000
1860
3CF0
3FF0
3FF0
3FF0
3FF0
1FE0
1FE0
0FC0
0FC0
0780
0780
0300
0000
0000
ENDCHAR

STARTCHAR onx4
ENCODING 4
SWIDTH 750 0
DWIDTH 12 0
BBX 12 16 0 -4
BITMAP
0000
0300
0780
0FC0
1FE0
3FF0
3FF0
3FF0
1FE0
0FC0
0780
0300
0000
0000
0000
0000
ENDCHAR

STARTCHAR onx5
ENCODING 5
SWIDTH 750 0
DWIDTH 12 0
BBX 12 16 0 -4
BITMAP
0700
0F80
0F80
3760
7FF0
7FF0
7FF0
3760
0700
0700
0700
0700
0F80
0000
0000
0000
ENDCHAR

STARTCHAR onx6
ENCODING 6
SWIDTH 750 0
DWIDTH 12 0
BBX 12 16 0 -4
BITMAP
0300
0300
0780
0FC0
1FE0
3FF0
3FF0
3FF0
1FE0
0780
0300
0780
0FC0
0000
0000
0000
ENDCHAR

STARTCHAR onx7
ENCODING 7
SWIDTH 750 0
DWIDTH 12 0
BBX 12 16 0 -4
BITMAP
0000
0000
0000
0000
0000
0000
0600
0F00
0F00
0600
0000
0000
0000
0000
0000
0000
ENDCHAR

STARTCHAR onx8
ENCODING 8
SWIDTH 750 0
DWIDTH 12 0
BBX 12 16 0 -4
BITMAP
FFF0
FFF0
FFF0
FFF0
FFF0
FFF0
F9F0
F0F0
F0F0
F9F0
FFF0
FFF0
FFF0
FFF0
FFF0
FFF0
ENDCHAR

STARTCHAR onx9
ENCODING 9
SWIDTH 750 0
DWIDTH 12 0
BBX 12 16 0 -4
BITMAP
0000
0000
0000
0000
0F00
1F80
39C0
30C0
30C0
39C0
1F80
0F00
0000
0000
0000
0000
ENDCHAR

STARTCHAR onx10
ENCODING 10
SWIDTH 750 0
DWIDTH 12 0
BBX 12 16 0 -4
BITMAP
FFF0
FFF0
FFF0
FFF0
F0F0
E070
C630
CF30
CF30
C630
E070
F0F0
FFF0
FFF0
FFF0
FFF0
ENDCHAR

STARTCHAR onx11
ENCODING 11
SWIDTH 750 0
DWIDTH 12 0
BBX 12 16 0 -4
BITMAP
0000
0000
03F0
03F0
01F0
01F0
3FF0
7F30
E700
C300
C300
E700
7E00
3C00
0000
0000
ENDCHAR

STARTCHAR onx12
ENCODING 12
SWIDTH 750 0
DWIDTH 12 0
BBX 12 16 0 -4
BITMAP
0780
1FE0
3870
3030
3030
3870
1FE0
0780
0300
0300
0FC0
0FC0
0300
0300
0000
0000
ENDCHAR

STARTCHAR onx13
ENCODING 13
SWIDTH 750 0
DWIDTH 12 0
BBX 12 16 0 -4
BITMAP
0100
0180
01C0
0160
0130
0110
0100
0100
0100
1D00
3F00
3F00
3F00
1D00
0000
0000
ENDCHAR

STARTCHAR onx14
ENCODING 14
SWIDTH 750 0
DWIDTH 12 0
BBX 12 16 0 -4
BITMAP
0700
0580
04C0
0470
0710
0590
04D0
0470
0410
0410
1410
3C10
3C50
14F0
00F0
0050
ENDCHAR

STARTCHAR onx15
ENCODING 15
SWIDTH 750 0
DWIDTH 12 0
BBX 12 16 0 -4
BITMAP
0000
0000
3030
3870
1FE0
0CC0
3870
3870
0CC0
1FE0
3870
3030
0000
0000
0000
0000
ENDCHAR

STARTCHAR onx16
ENCODING 16
SWIDTH 750 0
DWIDTH 12 0
BBX 12 16 0 -4
BITMAP
0000
0000
F000
FC00
FF00
FFC0
FFF0
FFF0
FFC0
FF00
FC00
F000
0000
0000
0000
0000
ENDCHAR

STARTCHAR onx17
ENCODING 17
SWIDTH 750 0
DWIDTH 12 0
BBX 12 16 0 -4
BITMAP
0000
0000
00F0
03F0
0FF0
3FF0
FFF0
FFF0
3FF0
0FF0
03F0
00F0
0000
0000
0000
0000
ENDCHAR

STARTCHAR onx18
ENCODING 18
SWIDTH 750 0
DWIDTH 12 0
BBX 12 16 0 -4
BITMAP
0300
0300
0FC0
0FC0
0300
0300
0300
0300
0300
0300
0FC0
0FC0
0300
0300
0000
0000
ENDCHAR

STARTCHAR onx19
ENCODING 19
SWIDTH 750 0
DWIDTH 12 0
BBX 12 16 0 -4
BITMAP
0CC0
0CC0
0CC0
0CC0
0CC0
0CC0
0CC0
0CC0
0CC0
0CC0
0000
0000
0CC0
0CC0
0000
0000
ENDCHAR

STARTCHAR onx20
ENCODING 20
SWIDTH 750 0
DWIDTH 12 0
BBX 12 16 0 -4
BITMAP
0000
0000
3FF0
7FF0
CCC0
CCC0
CCC0
CCC0
7CC0
3CC0
0CC0
0CC0
0CC0
0CC0
0000
0000
ENDCHAR

STARTCHAR onx21
ENCODING 21
SWIDTH 750 0
DWIDTH 12 0
BBX 12 16 0 -4
BITMAP
01F0
03E0
0780
0F00
0FC0
1FE0
1C70
1830
1830
0C70
0FE0
07E0
03C0
0780
1F00
3E00
ENDCHAR

STARTCHAR onx22
ENCODING 22
SWIDTH 750 0
DWIDTH 12 0
BBX 12 16 0 -4
BITMAP
0000
0000
0000
0000
3FF0
3FF0
3FF0
3FF0
3FF0
3FF0
0000
0000
0000
0000
0000
0000
ENDCHAR

STARTCHAR onx23
ENCODING 23
SWIDTH 750 0
DWIDTH 12 0
BBX 12 16 0 -4
BITMAP
0300
0300
0FC0
0FC0
0300
0300
0300
0300
0FC0
0FC0
0300
0300
3FF0
3FF0
0000
0000
ENDCHAR

STARTCHAR onx24
ENCODING 24
SWIDTH 750 0
DWIDTH 12 0
BBX 12 16 0 -4
BITMAP
0300
0780
0FC0
1FE0
3FF0
3FF0
0300
0300
0300
0300
0300
0300
0300
0300
0000
0000
ENDCHAR

STARTCHAR onx25
ENCODING 25
SWIDTH 750 0
DWIDTH 12 0
BBX 12 16 0 -4
BITMAP
0300
0300
0300
0300
0300
0300
0300
0300
3FF0
3FF0
1FE0
0FC0
0780
0300
0000
0000
ENDCHAR

STARTCHAR onx26
ENCODING 26
SWIDTH 750 0
DWIDTH 12 0
BBX 12 16 0 -4
BITMAP
0000
0000
0300
0380
03C0
03E0
FFF0
FFF0
03E0
03C0
0380
0300
0000
0000
0000
0000
ENDCHAR

STARTCHAR onx27
ENCODING 27
SWIDTH 750 0
DWIDTH 12 0
BBX 12 16 0 -4
BITMAP
0000
0000
0C00
1C00
3C00
7C00
FFF0
FFF0
7C00
3C00
1C00
0C00
0000
0000
0000
0000
ENDCHAR

STARTCHAR onx28
ENCODING 28
SWIDTH 750 0
DWIDTH 12 0
BBX 12 16 0 -4
BITMAP
3000
3000
3000
3000
3000
3000
3FF0
3FF0
0000
0000
0000
0000
0000
0000
0000
0000
ENDCHAR

STARTCHAR onx29
ENCODING 29
SWIDTH 750 0
DWIDTH 12 0
BBX 12 16 0 -4
BITMAP
0000
0000
0000
0000
30C0
30C0
FFF0
FFF0
30C0
30C0
0000
0000
0000
0000
0000
0000
ENDCHAR

STARTCHAR onx30
ENCODING 30
SWIDTH 750 0
DWIDTH 12 0
BBX 12 16 0 -4
BITMAP
0000
0000
0000
0000
0300
0300
0780
0780
0FC0
0FC0
1FE0
1FE0
3FF0
3FF0
3FF0
3FF0
ENDCHAR

STARTCHAR onx31
ENCODING 31
SWIDTH 750 0
DWIDTH 12 0
BBX 12 16 0 -4
BITMAP
3FF0
3FF0
3FF0
3FF0
1FE0
1FE0
0FC0
0FC0
0780
0780
0300
0300
0000
0000
0000
0000
ENDCHAR

STARTCHAR onx32
ENCODING 32
SWIDTH 750 0
DWIDTH 12 0
BBX 12 16 0 -4
BITMAP
0000
0000
0000
0000
0000
0000
0000
0000
0000
0000
0000
0000
0000
0000
0000
0000
ENDCHAR

STARTCHAR onx33
ENCODING 33
SWIDTH 750 0
DWIDTH 12 0
BBX 12 16 0 -4
BITMAP
0180
03C0
03C0
03C0
03C0
03C0
03C0
03C0
03C0
0180
0000
03C0
03C0
0180
0000
0000
ENDCHAR

STARTCHAR onx34
ENCODING 34
SWIDTH 750 0
DWIDTH 12 0
BBX 12 16 0 -4
BITMAP
1860
3CF0
3CF0
1C70
0C30
0C30
1860
30C0
0000
0000
0000
0000
0000
0000
0000
0000
ENDCHAR

STARTCHAR onx35
ENCODING 35
SWIDTH 750 0
DWIDTH 12 0
BBX 12 16 0 -4
BITMAP
0000
0000
0CC0
0CC0
3FF0
3FF0
0CC0
0CC0
3FF0
3FF0
0CC0
0CC0
0000
0000
0000
0000
ENDCHAR

STARTCHAR onx36
ENCODING 36
SWIDTH 750 0
DWIDTH 12 0
BBX 12 16 0 -4
BITMAP
0300
0300
0FF0
1B00
3300
3300
1FC0
0360
0330
0330
0360
3FC0
0300
0300
0000
0000
ENDCHAR

STARTCHAR onx37
ENCODING 37
SWIDTH 750 0
DWIDTH 12 0
BBX 12 16 0 -4
BITMAP
1800
3C00
3C30
1870
00E0
01C0
0380
0700
0E00
1C00
3860
30F0
00F0
0060
0000
0000
ENDCHAR

STARTCHAR onx38
ENCODING 38
SWIDTH 750 0
DWIDTH 12 0
BBX 12 16 0 -4
BITMAP
0780
1FC0
38E0
3060
30E0
39C0
1F80
1E10
3F30
33E0
30E0
38E0
1FF0
0F30
0000
0000
ENDCHAR

STARTCHAR onx39
ENCODING 39
SWIDTH 750 0
DWIDTH 12 0
BBX 12 16 0 -4
BITMAP
0180
03C0
03C0
01C0
00C0
00C0
0180
0300
0000
0000
0000
0000
0000
0000
0000
0000
ENDCHAR

STARTCHAR onx40
ENCODING 40
SWIDTH 750 0
DWIDTH 12 0
BBX 12 16 0 -4
BITMAP
01C0
0380
0700
0E00
1C00
3C00
3800
3800
3C00
1C00
0E00
0700
0380
01C0
0000
0000
ENDCHAR

STARTCHAR onx41
ENCODING 41
SWIDTH 750 0
DWIDTH 12 0
BBX 12 16 0 -4
BITMAP
0E00
0700
0380
01C0
00E0
00F0
0070
0070
00F0
00E0
01C0
0380
0700
0E00
0000
0000
ENDCHAR

STARTCHAR onx42
ENCODING 42
SWIDTH 750 0
DWIDTH 12 0
BBX 12 16 0 -4
BITMAP
0000
0000
1CE0
0CC0
0780
0300
3FF0
3FF0
0300
0780
0CC0
1CE0
0000
0000
0000
0000
ENDCHAR

STARTCHAR onx43
ENCODING 43
SWIDTH 750 0
DWIDTH 12 0
BBX 12 16 0 -4
BITMAP
0000
0000
0300
0300
0300
0300
3FF0
3FF0
0300
0300
0300
0300
0000
0000
0000
0000
ENDCHAR

STARTCHAR onx44
ENCODING 44
SWIDTH 750 0
DWIDTH 12 0
BBX 12 16 0 -4
BITMAP
0000
0000
0000
0000
0000
0000
0000
0000
0180
03C0
03C0
01C0
00C0
00C0
0180
0300
ENDCHAR

STARTCHAR onx45
ENCODING 45
SWIDTH 750 0
DWIDTH 12 0
BBX 12 16 0 -4
BITMAP
0000
0000
0000
0000
0000
0000
3FF0
3FF0
0000
0000
0000
0000
0000
0000
0000
0000
ENDCHAR

STARTCHAR onx46
ENCODING 46
SWIDTH 750 0
DWIDTH 12 0
BBX 12 16 0 -4
BITMAP
0000
0000
0000
0000
0000
0000
0000
0000
0000
0000
03C0
03C0
03C0
03C0
0000
0000
ENDCHAR

STARTCHAR onx47
ENCODING 47
SWIDTH 750 0
DWIDTH 12 0
BBX 12 16 0 -4
BITMAP
0000
0000
0010
0030
0070
00F0
01E0
03C0
0780
0F00
1E00
3C00
3800
3000
0000
0000
ENDCHAR

STARTCHAR onx48
ENCODING 48
SWIDTH 750 0
DWIDTH 12 0
BBX 12 16 0 -4
BITMAP
0780
1FE0
1860
3030
3070
30F0
31F0
33B0
3730
3E30
3C30
1860
1FE0
0780
0000
0000
ENDCHAR

STARTCHAR onx49
ENCODING 49
SWIDTH 750 0
DWIDTH 12 0
BBX 12 16 0 -4
BITMAP
0100
0300
0700
0F00
0700
0300
0300
0300
0300
0300
0300
0300
0780
0FC0
0000
0000
ENDCHAR

STARTCHAR onx50
ENCODING 50
SWIDTH 750 0
DWIDTH 12 0
BBX 12 16 0 -4
BITMAP
0780
1FE0
3870
3030
0030
0070
00E0
01C0
0380
0700
0E00
1C00
3FF0
3FF0
0000
0000
ENDCHAR

STARTCHAR onx51
ENCODING 51
SWIDTH 750 0
DWIDTH 12 0
BBX 12 16 0 -4
BITMAP
07C0
1FE0
3870
3030
0030
0070
0FE0
0FE0
0070
0030
3030
3870
1FE0
07C0
0000
0000
ENDCHAR

STARTCHAR onx52
ENCODING 52
SWIDTH 750 0
DWIDTH 12 0
BBX 12 16 0 -4
BITMAP
30C0
30C0
30C0
30C0
30C0
30C0
30C0
30C0
3FF0
3FF0
00C0
00C0
00C0
00C0
0000
0000
ENDCHAR

STARTCHAR onx53
ENCODING 53
SWIDTH 750 0
DWIDTH 12 0
BBX 12 16 0 -4
BITMAP
3FF0
3FF0
3000
3800
3F80
1FE0
00F0
0030
0030
0030
3030
3070
1FE0
0FC0
0000
0000
ENDCHAR

STARTCHAR onx54
ENCODING 54
SWIDTH 750 0
DWIDTH 12 0
BBX 12 16 0 -4
BITMAP
0FC0
1FE0
3870
3030
3000
3800
3FC0
3FE0
3870
3030
3030
3870
1FE0
0FC0
0000
0000
ENDCHAR

STARTCHAR onx55
ENCODING 55
SWIDTH 750 0
DWIDTH 12 0
BBX 12 16 0 -4
BITMAP
3FF0
3FF0
0030
0030
0060
00C0
0180
0300
0300
0300
0300
0300
0300
0300
0000
0000
ENDCHAR

STARTCHAR onx56
ENCODING 56
SWIDTH 750 0
DWIDTH 12 0
BBX 12 16 0 -4
BITMAP
0FC0
1FE0
3870
3030
3030
3870
1FE0
1FE0
3870
3030
3030
3870
1FE0
0FC0
0000
0000
ENDCHAR

STARTCHAR onx57
ENCODING 57
SWIDTH 750 0
DWIDTH 12 0
BBX 12 16 0 -4
BITMAP
0FC0
1FE0
3870
3030
3030
3870
1FF0
0FF0
0070
0030
3030
3070
1FE0
0FC0
0000
0000
ENDCHAR

STARTCHAR onx58
ENCODING 58
SWIDTH 750 0
DWIDTH 12 0
BBX 12 16 0 -4
BITMAP
0000
0000
0180
03C0
03C0
0180
0000
0000
0180
03C0
03C0
0180
0000
0000
0000
0000
ENDCHAR

STARTCHAR onx59
ENCODING 59
SWIDTH 750 0
DWIDTH 12 0
BBX 12 16 0 -4
BITMAP
0000
0000
0180
03C0
03C0
0180
0000
0000
0180
03C0
03C0
01C0
00C0
00C0
0180
0300
ENDCHAR

STARTCHAR onx60
ENCODING 60
SWIDTH 750 0
DWIDTH 12 0
BBX 12 16 0 -4
BITMAP
00F0
01F0
03E0
07C0
0F80
1F00
3E00
3E00
1F00
0F80
07C0
03E0
01F0
00F0
0000
0000
ENDCHAR

STARTCHAR onx61
ENCODING 61
SWIDTH 750 0
DWIDTH 12 0
BBX 12 16 0 -4
BITMAP
0000
0000
0000
0000
3FF0
3FF0
0000
0000
3FF0
3FF0
0000
0000
0000
0000
0000
0000
ENDCHAR

STARTCHAR onx62
ENCODING 62
SWIDTH 750 0
DWIDTH 12 0
BBX 12 16 0 -4
BITMAP
3C00
3E00
1F00
0F80
07C0
03E0
01F0
01F0
03E0
07C0
0F80
1F00
3E00
3C00
0000
0000
ENDCHAR

STARTCHAR onx63
ENCODING 63
SWIDTH 750 0
DWIDTH 12 0
BBX 12 16 0 -4
BITMAP
0FC0
1FE0
3870
3030
0030
0070
01E0
03C0
0300
0300
0000
0000
0300
0300
0000
0000
ENDCHAR

STARTCHAR onx64
ENCODING 64
SWIDTH 750 0
DWIDTH 12 0
BBX 12 16 0 -4
BITMAP
0FC0
1FE0
3870
3030
33F0
3770
3630
3630
3770
33E0
3000
3800
1FF0
0FF0
0000
0000
ENDCHAR

STARTCHAR onx65
ENCODING 65
SWIDTH 750 0
DWIDTH 12 0
BBX 12 16 0 -4
BITMAP
0FC0
1FE0
3870
3030
3030
3030
3FF0
3FF0
3030
3030
3030
3030
3030
3030
0000
0000
ENDCHAR

STARTCHAR onx66
ENCODING 66
SWIDTH 750 0
DWIDTH 12 0
BBX 12 16 0 -4
BITMAP
3FC0
3FE0
3070
3030
3030
3070
3FE0
3FE0
3070
3030
3030
3070
3FE0
3FC0
0000
0000
ENDCHAR

STARTCHAR onx67
ENCODING 67
SWIDTH 750 0
DWIDTH 12 0
BBX 12 16 0 -4
BITMAP
0FC0
1FE0
3870
3030
3000
3000
3000
3000
3000
3000
3030
3870
1FE0
0FC0
0000
0000
ENDCHAR

STARTCHAR onx68
ENCODING 68
SWIDTH 750 0
DWIDTH 12 0
BBX 12 16 0 -4
BITMAP
3FC0
3FE0
3070
3030
3030
3030
3030
3030
3030
3030
3030
3070
3FE0
3FC0
0000
0000
ENDCHAR

STARTCHAR onx69
ENCODING 69
SWIDTH 750 0
DWIDTH 12 0
BBX 12 16 0 -4
BITMAP
3FF0
3FF0
3000
3000
3000
3000
3FC0
3FC0
3000
3000
3000
3000
3FF0
3FF0
0000
0000
ENDCHAR

STARTCHAR onx70
ENCODING 70
SWIDTH 750 0
DWIDTH 12 0
BBX 12 16 0 -4
BITMAP
3FF0
3FF0
3000
3000
3000
3000
3FC0
3FC0
3000
3000
3000
3000
3000
3000
0000
0000
ENDCHAR

STARTCHAR onx71
ENCODING 71
SWIDTH 750 0
DWIDTH 12 0
BBX 12 16 0 -4
BITMAP
0FC0
1FE0
3870
3030
3000
3000
3000
30F0
30F0
3030
3030
3830
1FF0
0FF0
0000
0000
ENDCHAR

STARTCHAR onx72
ENCODING 72
SWIDTH 750 0
DWIDTH 12 0
BBX 12 16 0 -4
BITMAP
3030
3030
3030
3030
3030
3030
3FF0
3FF0
3030
3030
3030
3030
3030
3030
0000
0000
ENDCHAR

STARTCHAR onx73
ENCODING 73
SWIDTH 750 0
DWIDTH 12 0
BBX 12 16 0 -4
BITMAP
0FF0
0FF0
0180
0180
0180
0180
0180
0180
0180
0180
0180
0180
0FF0
0FF0
0000
0000
ENDCHAR

STARTCHAR onx74
ENCODING 74
SWIDTH 750 0
DWIDTH 12 0
BBX 12 16 0 -4
BITMAP
3FF0
3FF0
0300
0300
0300
0300
0300
0300
0300
3300
3300
3B00
1F00
0E00
0000
0000
ENDCHAR

STARTCHAR onx75
ENCODING 75
SWIDTH 750 0
DWIDTH 12 0
BBX 12 16 0 -4
BITMAP
3030
3060
30C0
3180
3300
3600
3C00
3C00
3600
3300
3180
30C0
3060
3030
0000
0000
ENDCHAR

STARTCHAR onx76
ENCODING 76
SWIDTH 750 0
DWIDTH 12 0
BBX 12 16 0 -4
BITMAP
3000
3000
3000
3000
3000
3000
3000
3000
3000
3000
3000
3000
3FF0
3FF0
0000
0000
ENDCHAR

STARTCHAR onx77
ENCODING 77
SWIDTH 750 0
DWIDTH 12 0
BBX 12 16 0 -4
BITMAP
3030
3870
3CF0
3FF0
37B0
3330
3030
3030
3030
3030
3030
3030
3030
3030
0000
0000
ENDCHAR

STARTCHAR onx78
ENCODING 78
SWIDTH 750 0
DWIDTH 12 0
BBX 12 16 0 -4
BITMAP
3030
3830
3C30
3E30
3730
33B0
31F0
30F0
3070
3030
3030
3030
3030
3030
0000
0000
ENDCHAR

STARTCHAR onx79
ENCODING 79
SWIDTH 750 0
DWIDTH 12 0
BBX 12 16 0 -4
BITMAP
0FC0
1FE0
3870
3030
3030
3030
3030
3030
3030
3030
3030
3870
1FE0
0FC0
0000
0000
ENDCHAR

STARTCHAR onx80
ENCODING 80
SWIDTH 750 0
DWIDTH 12 0
BBX 12 16 0 -4
BITMAP
3FC0
3FE0
3070
3030
3030
3070
3FE0
3FC0
3000
3000
3000
3000
3000
3000
0000
0000
ENDCHAR

STARTCHAR onx81
ENCODING 81
SWIDTH 750 0
DWIDTH 12 0
BBX 12 16 0 -4
BITMAP
0FC0
1FE0
3870
3030
3030
3030
3030
3030
3330
31B0
30E0
30E0
1FF0
0F30
0000
0000
ENDCHAR

STARTCHAR onx82
ENCODING 82
SWIDTH 750 0
DWIDTH 12 0
BBX 12 16 0 -4
BITMAP
3FC0
3FE0
3070
3030
3030
3070
3FE0
3FC0
30E0
3070
3030
3030
3030
3030
0000
0000
ENDCHAR

STARTCHAR onx83
ENCODING 83
SWIDTH 750 0
DWIDTH 12 0
BBX 12 16 0 -4
BITMAP
0FC0
1FE0
3870
3030
3000
3C00
1F80
07E0
0070
0030
3030
3870
1FE0
0FC0
0000
0000
ENDCHAR

STARTCHAR onx84
ENCODING 84
SWIDTH 750 0
DWIDTH 12 0
BBX 12 16 0 -4
BITMAP
3FF0
3FF0
0300
0300
0300
0300
0300
0300
0300
0300
0300
0300
0300
0300
0000
0000
ENDCHAR

STARTCHAR onx85
ENCODING 85
SWIDTH 750 0
DWIDTH 12 0
BBX 12 16 0 -4
BITMAP
3030
3030
3030
3030
3030
3030
3030
3030
3030
3030
3030
3870
1FE0
0FC0
0000
0000
ENDCHAR

STARTCHAR onx86
ENCODING 86
SWIDTH 750 0
DWIDTH 12 0
BBX 12 16 0 -4
BITMAP
3030
3030
3030
3030
3030
3030
3030
3030
3030
3030
1860
0CC0
0780
0300
0000
0000
ENDCHAR

STARTCHAR onx87
ENCODING 87
SWIDTH 750 0
DWIDTH 12 0
BBX 12 16 0 -4
BITMAP
3030
3030
3030
3030
3030
3030
3030
3330
3330
37B0
3FF0
3CF0
3870
3030
0000
0000
ENDCHAR

STARTCHAR onx88
ENCODING 88
SWIDTH 750 0
DWIDTH 12 0
BBX 12 16 0 -4
BITMAP
3030
3030
3870
1CE0
0CC0
0780
0780
0780
0CC0
0CC0
1860
3870
3030
3030
0000
0000
ENDCHAR

STARTCHAR onx89
ENCODING 89
SWIDTH 750 0
DWIDTH 12 0
BBX 12 16 0 -4
BITMAP
3030
3030
3030
3030
3030
1860
0CC0
0780
0300
0300
0300
0300
0300
0300
0000
0000
ENDCHAR

STARTCHAR onx90
ENCODING 90
SWIDTH 750 0
DWIDTH 12 0
BBX 12 16 0 -4
BITMAP
3FF0
3FF0
0030
0030
0070
00E0
0380
0F00
1C00
3800
3000
3000
3FF0
3FF0
0000
0000
ENDCHAR

STARTCHAR onx91
ENCODING 91
SWIDTH 750 0
DWIDTH 12 0
BBX 12 16 0 -4
BITMAP
3FC0
3FC0
3000
3000
3000
3000
3000
3000
3000
3000
3000
3000
3FC0
3FC0
0000
0000
ENDCHAR

STARTCHAR onx92
ENCODING 92
SWIDTH 750 0
DWIDTH 12 0
BBX 12 16 0 -4
BITMAP
0000
0000
2000
3000
3800
3C00
1E00
0F00
0780
03C0
01E0
00F0
0070
0030
0000
0000
ENDCHAR

STARTCHAR onx93
ENCODING 93
SWIDTH 750 0
DWIDTH 12 0
BBX 12 16 0 -4
BITMAP
0FF0
0FF0
0030
0030
0030
0030
0030
0030
0030
0030
0030
0030
0FF0
0FF0
0000
0000
ENDCHAR

STARTCHAR onx94
ENCODING 94
SWIDTH 750 0
DWIDTH 12 0
BBX 12 16 0 -4
BITMAP
0300
0780
0FC0
1FE0
3CF0
3870
3030
3030
0000
0000
0000
0000
0000
0000
0000
0000
ENDCHAR

STARTCHAR onx95
ENCODING 95
SWIDTH 750 0
DWIDTH 12 0
BBX 12 16 0 -4
BITMAP
0000
0000
0000
0000
0000
0000
0000
0000
0000
0000
0000
0000
FFF0
FFF0
0000
0000
ENDCHAR

STARTCHAR onx96
ENCODING 96
SWIDTH 750 0
DWIDTH 12 0
BBX 12 16 0 -4
BITMAP
0300
0600
0C00
0C00
0E00
0F00
0F00
0600
0000
0000
0000
0000
0000
0000
0000
0000
ENDCHAR

STARTCHAR onx97
ENCODING 97
SWIDTH 750 0
DWIDTH 12 0
BBX 12 16 0 -4
BITMAP
0000
0000
0000
0000
0FC0
0FE0
0070
0030
0FB0
1FF0
38F0
30F0
3FF0
1FB0
0000
0000
ENDCHAR

STARTCHAR onx98
ENCODING 98
SWIDTH 750 0
DWIDTH 12 0
BBX 12 16 0 -4
BITMAP
3000
3000
3000
3000
37C0
3FE0
3870
3030
3030
3030
3030
3870
1FE0
0FC0
0000
0000
ENDCHAR

STARTCHAR onx99
ENCODING 99
SWIDTH 750 0
DWIDTH 12 0
BBX 12 16 0 -4
BITMAP
0000
0000
0000
0000
0FC0
1FE0
3870
3030
3000
3000
3000
3800
1FF0
0FF0
0000
0000
ENDCHAR

STARTCHAR onx100
ENCODING 100
SWIDTH 750 0
DWIDTH 12 0
BBX 12 16 0 -4
BITMAP
0030
0030
0030
0030
0FB0
1FF0
3870
3030
3030
3030
3030
3870
1FE0
0FC0
0000
0000
ENDCHAR

STARTCHAR onx101
ENCODING 101
SWIDTH 750 0
DWIDTH 12 0
BBX 12 16 0 -4
BITMAP
0000
0000
0000
0000
07C0
1FE0
1830
3030
3FF0
3FE0
3000
1800
1FF0
07F0
0000
0000
ENDCHAR

STARTCHAR onx102
ENCODING 102
SWIDTH 750 0
DWIDTH 12 0
BBX 12 16 0 -4
BITMAP
03E0
07F0
0630
0600
3FF0
3FF0
0600
0600
0600
0600
0600
0600
3FC0
3FC0
0000
0000
ENDCHAR

STARTCHAR onx103
ENCODING 103
SWIDTH 750 0
DWIDTH 12 0
BBX 12 16 0 -4
BITMAP
0000
0000
0000
0000
0FC0
1FE0
3870
3030
3030
3870
1FF0
0FF0
0030
0070
3FE0
3FC0
ENDCHAR

STARTCHAR onx104
ENCODING 104
SWIDTH 750 0
DWIDTH 12 0
BBX 12 16 0 -4
BITMAP
3000
3000
3000
3000
3FC0
3FE0
3070
3030
3030
3030
3030
3030
3030
3030
0000
0000
ENDCHAR

STARTCHAR onx105
ENCODING 105
SWIDTH 750 0
DWIDTH 12 0
BBX 12 16 0 -4
BITMAP
0180
0180
0000
0000
0380
0780
0180
0180
0180
0180
0180
0180
0FF0
0FF0
0000
0000
ENDCHAR

STARTCHAR onx106
ENCODING 106
SWIDTH 750 0
DWIDTH 12 0
BBX 12 16 0 -4
BITMAP
0030
0030
0000
0000
00F0
01F0
0030
0030
0030
0030
0030
0030
3030
3870
1FE0
0FC0
ENDCHAR

STARTCHAR onx107
ENCODING 107
SWIDTH 750 0
DWIDTH 12 0
BBX 12 16 0 -4
BITMAP
3000
3000
3000
3000
3030
3060
30C0
3380
3E00
3E00
3380
30C0
3060
3030
0000
0000
ENDCHAR

STARTCHAR onx108
ENCODING 108
SWIDTH 750 0
DWIDTH 12 0
BBX 12 16 0 -4
BITMAP
0180
0180
0180
0180
0180
0180
0180
0180
0180
0180
0180
0180
0180
0180
0000
0000
ENDCHAR

STARTCHAR onx109
ENCODING 109
SWIDTH 750 0
DWIDTH 12 0
BBX 12 16 0 -4
BITMAP
0000
0000
0000
0000
2010
3030
3870
3CF0
37B0
3330
3030
3030
3030
3030
0000
0000
ENDCHAR

STARTCHAR onx110
ENCODING 110
SWIDTH 750 0
DWIDTH 12 0
BBX 12 16 0 -4
BITMAP
0000
0000
0000
0000
37C0
3FE0
3870
3030
3030
3030
3030
3030
3030
3030
0000
0000
ENDCHAR

STARTCHAR onx111
ENCODING 111
SWIDTH 750 0
DWIDTH 12 0
BBX 12 16 0 -4
BITMAP
0000
0000
0000
0000
0FC0
1FE0
3870
3030
3030
3030
3030
3870
1FE0
0FC0
0000
0000
ENDCHAR

STARTCHAR onx112
ENCODING 112
SWIDTH 750 0
DWIDTH 12 0
BBX 12 16 0 -4
BITMAP
0000
0000
0000
0000
3FC0
3FE0
3070
3030
3030
3070
3FE0
3FC0
3000
3000
3000
3000
ENDCHAR

STARTCHAR onx113
ENCODING 113
SWIDTH 750 0
DWIDTH 12 0
BBX 12 16 0 -4
BITMAP
0000
0000
0000
0000
0FC0
1FE0
3870
3030
3030
3870
1FF0
0FF0
0030
0030
0030
0030
ENDCHAR

STARTCHAR onx114
ENCODING 114
SWIDTH 750 0
DWIDTH 12 0
BBX 12 16 0 -4
BITMAP
0000
0000
0000
0000
37C0
3FE0
3870
3030
3000
3000
3000
3000
3000
3000
0000
0000
ENDCHAR

STARTCHAR onx115
ENCODING 115
SWIDTH 750 0
DWIDTH 12 0
BBX 12 16 0 -4
BITMAP
0000
0000
0000
0000
0FF0
1FF0
3800
3000
3FE0
1FF0
0030
0070
3FE0
3FC0
0000
0000
ENDCHAR

STARTCHAR onx116
ENCODING 116
SWIDTH 750 0
DWIDTH 12 0
BBX 12 16 0 -4
BITMAP
0600
0600
0600
0600
3FF0
3FF0
0600
0600
0600
0600
0630
0670
07E0
03C0
0000
0000
ENDCHAR

STARTCHAR onx117
ENCODING 117
SWIDTH 750 0
DWIDTH 12 0
BBX 12 16 0 -4
BITMAP
0000
0000
0000
0000
3030
3030
3030
3030
3030
3030
3030
3870
1FF0
0FB0
0000
0000
ENDCHAR

STARTCHAR onx118
ENCODING 118
SWIDTH 750 0
DWIDTH 12 0
BBX 12 16 0 -4
BITMAP
0000
0000
0000
0000
3030
3030
3030
3030
3030
3870
1CE0
0CC0
0780
0300
0000
0000
ENDCHAR

STARTCHAR onx119
ENCODING 119
SWIDTH 750 0
DWIDTH 12 0
BBX 12 16 0 -4
BITMAP
0000
0000
0000
0000
3030
3030
3030
3330
3330
37B0
3FF0
3CF0
3870
3030
0000
0000
ENDCHAR

STARTCHAR onx120
ENCODING 120
SWIDTH 750 0
DWIDTH 12 0
BBX 12 16 0 -4
BITMAP
0000
0000
0000
0000
3830
1C60
0EC0
0780
0300
0300
0F80
18C0
3070
2030
0000
0000
ENDCHAR

STARTCHAR onx121
ENCODING 121
SWIDTH 750 0
DWIDTH 12 0
BBX 12 16 0 -4
BITMAP
0000
0000
0000
0000
3030
3030
3030
3030
3030
3830
1FF0
0FF0
0030
0030
3FE0
3FC0
ENDCHAR

STARTCHAR onx122
ENCODING 122
SWIDTH 750 0
DWIDTH 12 0
BBX 12 16 0 -4
BITMAP
0000
0000
0000
0000
3FF0
3FF0
00E0
01C0
0380
0700
0E00
1C00
3FF0
3FF0
0000
0000
ENDCHAR

STARTCHAR onx123
ENCODING 123
SWIDTH 750 0
DWIDTH 12 0
BBX 12 16 0 -4
BITMAP
03F0
07F0
0F80
0F00
0F00
1E00
3C00
3C00
1E00
0F00
0F00
0F80
07F0
03F0
0000
0000
ENDCHAR

STARTCHAR onx124
ENCODING 124
SWIDTH 750 0
DWIDTH 12 0
BBX 12 16 0 -4
BITMAP
03C0
03C0
03C0
03C0
03C0
03C0
03C0
03C0
03C0
03C0
03C0
03C0
03C0
03C0
0000
0000
ENDCHAR

STARTCHAR onx125
ENCODING 125
SWIDTH 750 0
DWIDTH 12 0
BBX 12 16 0 -4
BITMAP
3F00
3F80
07C0
03C0
03C0
01E0
00F0
00F0
01E0
03C0
03C0
07C0
3F80
3F00
0000
0000
ENDCHAR

STARTCHAR onx126
ENCODING 126
SWIDTH 750 0
DWIDTH 12 0
BBX 12 16 0 -4
BITMAP
0000
0000
0C00
1E00
3F30
3F30
33F0
33F0
01E0
00C0
0000
0000
0000
0000
0000
0000
ENDCHAR

STARTCHAR onx127
ENCODING 127
SWIDTH 750 0
DWIDTH 12 0
BBX 12 16 0 -4
BITMAP
0030
0070
00F0
01F0
03B0
0730
0E30
1C30
3830
7030
E030
C030
FFF0
FFF0
0000
0000
ENDCHAR

STARTCHAR onx128
ENCODING 128
SWIDTH 750 0
DWIDTH 12 0
BBX 12 16 0 -4
BITMAP
0FC0
0FC0
3C30
3C30
3C00
3C00
3C00
3C00
3C30
3C30
0FC0
0FC0
00C0
00C0
0FC0
0FC0
ENDCHAR

STARTCHAR onx129
ENCODING 129
SWIDTH 750 0
DWIDTH 12 0
BBX 12 16 0 -4
BITMAP
0CC0
0CC0
0000
0000
30F0
30F0
30F0
30F0
30F0
30F0
30F0
30F0
0FF0
0FF0
0000
0000
ENDCHAR

STARTCHAR onx130
ENCODING 130
SWIDTH 750 0
DWIDTH 12 0
BBX 12 16 0 -4
BITMAP
00C0
00C0
0300
0300
0FC0
0FC0
3C30
3C30
3FF0
3FF0
3C00
3C00
0FF0
0FF0
0000
0000
ENDCHAR

STARTCHAR onx131
ENCODING 131
SWIDTH 750 0
DWIDTH 12 0
BBX 12 16 0 -4
BITMAP
0300
0300
0CC0
0CC0
0FC0
0FC0
00F0
00F0
0FF0
0FF0
30F0
30F0
0FF0
0FF0
0000
0000
ENDCHAR

STARTCHAR onx132
ENCODING 132
SWIDTH 750 0
DWIDTH 12 0
BBX 12 16 0 -4
BITMAP
0CC0
0CC0
0000
0000
0FC0
0FC0
00F0
00F0
0FF0
0FF0
30F0
30F0
0FF0
0FF0
0000
0000
ENDCHAR

STARTCHAR onx133
ENCODING 133
SWIDTH 750 0
DWIDTH 12 0
BBX 12 16 0 -4
BITMAP
0C00
0C00
0300
0300
0FC0
0FC0
00F0
00F0
0FF0
0FF0
30F0
30F0
0FF0
0FF0
0000
0000
ENDCHAR

STARTCHAR onx134
ENCODING 134
SWIDTH 750 0
DWIDTH 12 0
BBX 12 16 0 -4
BITMAP
03C0
03C0
03C0
03C0
0FC0
0FC0
00F0
00F0
0FF0
0FF0
30F0
30F0
0FF0
0FF0
0000
0000
ENDCHAR

STARTCHAR onx135
ENCODING 135
SWIDTH 750 0
DWIDTH 12 0
BBX 12 16 0 -4
BITMAP
0000
0000
0000
0000
0FC0
0FC0
3C30
3C30
3C00
3C00
0FF0
0FF0
00C0
00C0
0FC0
0FC0
ENDCHAR

STARTCHAR onx136
ENCODING 136
SWIDTH 750 0
DWIDTH 12 0
BBX 12 16 0 -4
BITMAP
0300
0300
0CC0
0CC0
0FC0
0FC0
3C30
3C30
3FF0
3FF0
3C00
3C00
0FF0
0FF0
0000
0000
ENDCHAR

STARTCHAR onx137
ENCODING 137
SWIDTH 750 0
DWIDTH 12 0
BBX 12 16 0 -4
BITMAP
0CC0
0CC0
0000
0000
0FC0
0FC0
3C30
3C30
3FF0
3FF0
3C00
3C00
0FF0
0FF0
0000
0000
ENDCHAR

STARTCHAR onx138
ENCODING 138
SWIDTH 750 0
DWIDTH 12 0
BBX 12 16 0 -4
BITMAP
0C00
0C00
0300
0300
0FC0
0FC0
3C30
3C30
3FF0
3FF0
3C00
3C00
0FF0
0FF0
0000
0000
ENDCHAR

STARTCHAR onx139
ENCODING 139
SWIDTH 750 0
DWIDTH 12 0
BBX 12 16 0 -4
BITMAP
0CC0
0CC0
0000
0000
0FC0
0FC0
03C0
03C0
03C0
03C0
03C0
03C0
0FF0
0FF0
0000
0000
ENDCHAR

STARTCHAR onx140
ENCODING 140
SWIDTH 750 0
DWIDTH 12 0
BBX 12 16 0 -4
BITMAP
00C0
00C0
0330
0330
0FC0
0FC0
03C0
03C0
03C0
03C0
03C0
03C0
0FF0
0FF0
0000
0000
ENDCHAR

STARTCHAR onx141
ENCODING 141
SWIDTH 750 0
DWIDTH 12 0
BBX 12 16 0 -4
BITMAP
0C00
0C00
0300
0300
0FC0
0FC0
03C0
03C0
03C0
03C0
03C0
03C0
0FF0
0FF0
0000
0000
ENDCHAR

STARTCHAR onx142
ENCODING 142
SWIDTH 750 0
DWIDTH 12 0
BBX 12 16 0 -4
BITMAP
0CC0
0CC0
0FC0
0FC0
3030
3030
3030
3030
3FF0
3FF0
3030
3030
3030
3030
0000
0000
ENDCHAR

STARTCHAR onx143
ENCODING 143
SWIDTH 750 0
DWIDTH 12 0
BBX 12 16 0 -4
BITMAP
03C0
03C0
03C0
03C0
0C30
0C30
3030
3030
3FF0
3FF0
3030
3030
3030
3030
0000
0000
ENDCHAR

STARTCHAR onx144
ENCODING 144
SWIDTH 750 0
DWIDTH 12 0
BBX 12 16 0 -4
BITMAP
00C0
00C0
0300
0300
3FF0
3FF0
3000
3000
3FC0
3FC0
3000
3000
3FF0
3FF0
0000
0000
ENDCHAR

STARTCHAR onx145
ENCODING 145
SWIDTH 750 0
DWIDTH 12 0
BBX 12 16 0 -4
BITMAP
0000
0000
0000
0000
3CC0
3CC0
0330
0330
3FF0
3FF0
3300
3300
0FF0
0FF0
0000
0000
ENDCHAR

STARTCHAR onx146
ENCODING 146
SWIDTH 750 0
DWIDTH 12 0
BBX 12 16 0 -4
BITMAP
0FF0
0FF0
3300
3300
3300
3300
3FF0
3FF0
3300
3300
3300
3300
33F0
33F0
0000
0000
ENDCHAR

STARTCHAR onx147
ENCODING 147
SWIDTH 750 0
DWIDTH 12 0
BBX 12 16 0 -4
BITMAP
0300
0300
0CC0
0CC0
0FC0
0FC0
3C30
3C30
3C30
3C30
3C30
3C30
0FC0
0FC0
0000
0000
ENDCHAR

STARTCHAR onx148
ENCODING 148
SWIDTH 750 0
DWIDTH 12 0
BBX 12 16 0 -4
BITMAP
0CC0
0CC0
0000
0000
0FC0
0FC0
3C30
3C30
3C30
3C30
3C30
3C30
0FC0
0FC0
0000
0000
ENDCHAR

STARTCHAR onx149
ENCODING 149
SWIDTH 750 0
DWIDTH 12 0
BBX 12 16 0 -4
BITMAP
0C00
0C00
0300
0300
0FC0
0FC0
3C30
3C30
3C30
3C30
3C30
3C30
0FC0
0FC0
0000
0000
ENDCHAR

STARTCHAR onx150
ENCODING 150
SWIDTH 750 0
DWIDTH 12 0
BBX 12 16 0 -4
BITMAP
0300
0300
0CC0
0CC0
30F0
30F0
30F0
30F0
30F0
30F0
30F0
30F0
0FF0
0FF0
0000
0000
ENDCHAR

STARTCHAR onx151
ENCODING 151
SWIDTH 750 0
DWIDTH 12 0
BBX 12 16 0 -4
BITMAP
0C00
0C00
0300
0300
30F0
30F0
30F0
30F0
30F0
30F0
30F0
30F0
0FF0
0FF0
0000
0000
ENDCHAR

STARTCHAR onx152
ENCODING 152
SWIDTH 750 0
DWIDTH 12 0
BBX 12 16 0 -4
BITMAP
0CC0
0CC0
0000
0000
30F0
30F0
30F0
30F0
0CF0
0CF0
03F0
03F0
30F0
30F0
0FC0
0FC0
ENDCHAR

STARTCHAR onx153
ENCODING 153
SWIDTH 750 0
DWIDTH 12 0
BBX 12 16 0 -4
BITMAP
0CC0
0CC0
0FC0
0FC0
3030
3030
3030
3030
3030
3030
3030
3030
0FC0
0FC0
0000
0000
ENDCHAR

STARTCHAR onx154
ENCODING 154
SWIDTH 750 0
DWIDTH 12 0
BBX 12 16 0 -4
BITMAP
0CC0
0CC0
3030
3030
3030
3030
3030
3030
3030
3030
3030
3030
0FC0
0FC0
0000
0000
ENDCHAR

STARTCHAR onx155
ENCODING 155
SWIDTH 750 0
DWIDTH 12 0
BBX 12 16 0 -4
BITMAP
0000
0000
0300
0300
0FC0
0FC0
3330
3330
3300
3300
0FF0
0FF0
0300
0300
0000
0000
ENDCHAR

STARTCHAR onx156
ENCODING 156
SWIDTH 750 0
DWIDTH 12 0
BBX 12 16 0 -4
BITMAP
03C0
03C0
0F30
0F30
0F00
0F00
3FC0
3FC0
0F00
0F00
0F00
0F00
3FF0
3FF0
0000
0000
ENDCHAR

STARTCHAR onx157
ENCODING 157
SWIDTH 750 0
DWIDTH 12 0
BBX 12 16 0 -4
BITMAP
3030
3030
0CC0
0CC0
0300
0300
3FF0
3FF0
3FF0
3FF0
0300
0300
0300
0300
0000
0000
ENDCHAR

STARTCHAR onx158
ENCODING 158
SWIDTH 750 0
DWIDTH 12 0
BBX 12 16 0 -4
BITMAP
3F00
3F00
3300
3300
3F00
3F00
30C0
30C0
33F0
33F0
00C0
00C0
00C0
00C0
0000
0000
ENDCHAR

STARTCHAR onx159
ENCODING 159
SWIDTH 750 0
DWIDTH 12 0
BBX 12 16 0 -4
BITMAP
03C0
03C0
0F30
0F30
0F00
0F00
3FC0
3FC0
0F00
0F00
CF00
CF00
3C00
3C00
0000
0000
ENDCHAR

STARTCHAR onx160
ENCODING 160
SWIDTH 750 0
DWIDTH 12 0
BBX 12 16 0 -4
BITMAP
00C0
00C0
0300
0300
0FC0
0FC0
00F0
00F0
0FF0
0FF0
30F0
30F0
0FF0
0FF0
0000
0000
ENDCHAR

STARTCHAR onx161
ENCODING 161
SWIDTH 750 0
DWIDTH 12 0
BBX 12 16 0 -4
BITMAP
00C0
00C0
0300
0300
0FC0
0FC0
03C0
03C0
03C0
03C0
03C0
03C0
0FF0
0FF0
0000
0000
ENDCHAR

STARTCHAR onx162
ENCODING 162
SWIDTH 750 0
DWIDTH 12 0
BBX 12 16 0 -4
BITMAP
00C0
00C0
0300
0300
0FC0
0FC0
3C30
3C30
3C30
3C30
3C30
3C30
0FC0
0FC0
0000
0000
ENDCHAR

STARTCHAR onx163
ENCODING 163
SWIDTH 750 0
DWIDTH 12 0
BBX 12 16 0 -4
BITMAP
00C0
00C0
0300
0300
30F0
30F0
30F0
30F0
30F0
30F0
30F0
30F0
0FF0
0FF0
0000
0000
ENDCHAR

STARTCHAR onx164
ENCODING 164
SWIDTH 750 0
DWIDTH 12 0
BBX 12 16 0 -4
BITMAP
0330
0330
0CC0
0CC0
3FC0
3FC0
3C30
3C30
3C30
3C30
3C30
3C30
3C30
3C30
0000
0000
ENDCHAR

STARTCHAR onx165
ENCODING 165
SWIDTH 750 0
DWIDTH 12 0
BBX 12 16 0 -4
BITMAP
0330
0330
0CC0
0CC0
3030
3030
3C30
3C30
3330
3330
30F0
30F0
3030
3030
0000
0000
ENDCHAR

STARTCHAR onx166
ENCODING 166
SWIDTH 750 0
DWIDTH 12 0
BBX 12 16 0 -4
BITMAP
0FC0
0FC0
30C0
30C0
30C0
30C0
0F30
0F30
0000
0000
3FF0
3FF0
0000
0000
0000
0000
ENDCHAR

STARTCHAR onx167
ENCODING 167
SWIDTH 750 0
DWIDTH 12 0
BBX 12 16 0 -4
BITMAP
03C0
03C0
0C30
0C30
0C30
0C30
03C0
03C0
0000
0000
0FF0
0FF0
0000
0000
0000
0000
ENDCHAR

STARTCHAR onx168
ENCODING 168
SWIDTH 750 0
DWIDTH 12 0
BBX 12 16 0 -4
BITMAP
0300
0300
0000
0000
0300
0300
0F00
0F00
3C00
3C00
3C30
3C30
0FC0
0FC0
0000
0000
ENDCHAR

STARTCHAR onx169
ENCODING 169
SWIDTH 750 0
DWIDTH 12 0
BBX 12 16 0 -4
BITMAP
0000
0000
0000
0000
0000
0000
3FF0
3FF0
3000
3000
3000
3000
3000
3000
0000
0000
ENDCHAR

STARTCHAR onx170
ENCODING 170
SWIDTH 750 0
DWIDTH 12 0
BBX 12 16 0 -4
BITMAP
0000
0000
0000
0000
0000
0000
3FF0
3FF0
0030
0030
0030
0030
0030
0030
0000
0000
ENDCHAR

STARTCHAR onx171
ENCODING 171
SWIDTH 750 0
DWIDTH 12 0
BBX 12 16 0 -4
BITMAP
3000
3040
30C0
3180
3300
3600
0DE0
1BF0
3330
2030
0060
00C0
01F0
03F0
0000
0000
ENDCHAR

STARTCHAR onx172
ENCODING 172
SWIDTH 750 0
DWIDTH 12 0
BBX 12 16 0 -4
BITMAP
3000
3040
30C0
3180
3300
3600
0C00
1B30
3330
2330
03F0
03F0
0030
0030
0000
0000
ENDCHAR

STARTCHAR onx173
ENCODING 173
SWIDTH 750 0
DWIDTH 12 0
BBX 12 16 0 -4
BITMAP
03C0
03C0
0000
0000
03C0
03C0
03C0
03C0
03C0
03C0
03C0
03C0
03C0
03C0
0000
0000
ENDCHAR

STARTCHAR onx174
ENCODING 174
SWIDTH 750 0
DWIDTH 12 0
BBX 12 16 0 -4
BITMAP
0000
0000
0330
0660
0CC0
1980
3300
3300
1980
0CC0
0660
0330
0000
0000
0000
0000
ENDCHAR

STARTCHAR onx175
ENCODING 175
SWIDTH 750 0
DWIDTH 12 0
BBX 12 16 0 -4
BITMAP
0000
0000
3300
1980
0CC0
0660
0330
0330
0660
0CC0
1980
3300
0000
0000
0000
0000
ENDCHAR

STARTCHAR onx176
ENCODING 176
SWIDTH 750 0
DWIDTH 12 0
BBX 12 16 0 -4
BITMAP
E380
C710
8E30
1C70
38E0
71C0
E380
C710
8E30
1C70
38E0
71C0
E380
C710
8E30
1C70
ENDCHAR

STARTCHAR onx177
ENCODING 177
SWIDTH 750 0
DWIDTH 12 0
BBX 12 16 0 -4
BITMAP
CCC0
6660
3330
9990
CCC0
6660
3330
9990
CCC0
6660
3330
9990
CCC0
6660
3330
1990
ENDCHAR

STARTCHAR onx178
ENCODING 178
SWIDTH 750 0
DWIDTH 12 0
BBX 12 16 0 -4
BITMAP
0FC0
0FC0
0FC0
0FC0
0FC0
0FC0
0FC0
0FC0
0FC0
0FC0
0FC0
0FC0
0FC0
0FC0
0FC0
0FC0
ENDCHAR

STARTCHAR onx179
ENCODING 179
SWIDTH 750 0
DWIDTH 12 0
BBX 12 16 0 -4
BITMAP
0C00
0C00
0C00
0C00
0C00
0C00
0C00
0C00
0C00
0C00
0C00
0C00
0C00
0C00
0C00
0C00
ENDCHAR

STARTCHAR onx180
ENCODING 180
SWIDTH 750 0
DWIDTH 12 0
BBX 12 16 0 -4
BITMAP
0F00
0F00
0F00
0F00
0F00
0F00
FF00
FF00
FF00
FF00
0F00
0F00
0F00
0F00
0F00
0F00
ENDCHAR

STARTCHAR onx181
ENCODING 181
SWIDTH 750 0
DWIDTH 12 0
BBX 12 16 0 -4
BITMAP
0FC0
0FC0
0FC0
0FC0
FFC0
FFC0
0FC0
0FC0
0FC0
0FC0
FFC0
FFC0
0FC0
0FC0
0FC0
0FC0
ENDCHAR

STARTCHAR onx182
ENCODING 182
SWIDTH 750 0
DWIDTH 12 0
BBX 12 16 0 -4
BITMAP
30C0
30C0
30C0
30C0
30C0
30C0
F0C0
F0C0
F0C0
F0C0
30C0
30C0
30C0
30C0
30C0
30C0
ENDCHAR

STARTCHAR onx183
ENCODING 183
SWIDTH 750 0
DWIDTH 12 0
BBX 12 16 0 -4
BITMAP
0000
0000
0000
0000
0000
0000
FFC0
FFC0
FFC0
FFC0
30C0
30C0
30C0
30C0
30C0
30C0
ENDCHAR

STARTCHAR onx184
ENCODING 184
SWIDTH 750 0
DWIDTH 12 0
BBX 12 16 0 -4
BITMAP
0000
0000
0000
0000
FF00
FF00
0F00
0F00
0F00
0F00
FF00
FF00
0F00
0F00
0F00
0F00
ENDCHAR

STARTCHAR onx185
ENCODING 185
SWIDTH 750 0
DWIDTH 12 0
BBX 12 16 0 -4
BITMAP
30C0
30C0
30C0
30C0
F0C0
F0C0
00C0
00C0
00C0
00C0
F0C0
F0C0
30C0
30C0
30C0
30C0
ENDCHAR

STARTCHAR onx186
ENCODING 186
SWIDTH 750 0
DWIDTH 12 0
BBX 12 16 0 -4
BITMAP
30C0
30C0
30C0
30C0
30C0
30C0
30C0
30C0
30C0
30C0
30C0
30C0
30C0
30C0
30C0
30C0
ENDCHAR

STARTCHAR onx187
ENCODING 187
SWIDTH 750 0
DWIDTH 12 0
BBX 12 16 0 -4
BITMAP
0000
0000
0000
0000
FFC0
FFC0
00C0
00C0
00C0
00C0
F0C0
F0C0
30C0
30C0
30C0
30C0
ENDCHAR

STARTCHAR onx188
ENCODING 188
SWIDTH 750 0
DWIDTH 12 0
BBX 12 16 0 -4
BITMAP
30C0
30C0
30C0
30C0
F0C0
F0C0
00C0
00C0
00C0
00C0
FFC0
FFC0
0000
0000
0000
0000
ENDCHAR

STARTCHAR onx189
ENCODING 189
SWIDTH 750 0
DWIDTH 12 0
BBX 12 16 0 -4
BITMAP
30C0
30C0
30C0
30C0
30C0
30C0
FFC0
FFC0
FFC0
FFC0
0000
0000
0000
0000
0000
0000
ENDCHAR

STARTCHAR onx190
ENCODING 190
SWIDTH 750 0
DWIDTH 12 0
BBX 12 16 0 -4
BITMAP
0F00
0F00
0F00
0F00
FF00
FF00
0F00
0F00
0F00
0F00
FF00
FF00
0000
0000
0000
0000
ENDCHAR

STARTCHAR onx191
ENCODING 191
SWIDTH 750 0
DWIDTH 12 0
BBX 12 16 0 -4
BITMAP
0000
0000
0000
0000
0000
0000
F000
FC00
3E00
1F00
1F80
0F80
0FC0
0FC0
0FC0
0FC0
ENDCHAR

STARTCHAR onx192
ENCODING 192
SWIDTH 750 0
DWIDTH 12 0
BBX 12 16 0 -4
BITMAP
0C00
0C00
0E00
0E00
0F00
0FC0
0FF0
0FF0
0FF0
07F0
03F0
00F0
0000
0000
0000
0000
ENDCHAR

STARTCHAR onx193
ENCODING 193
SWIDTH 750 0
DWIDTH 12 0
BBX 12 16 0 -4
BITMAP
0F00
0F00
0F00
0F00
0F00
0F00
FFF0
FFF0
FFF0
FFF0
0000
0000
0000
0000
0000
0000
ENDCHAR

STARTCHAR onx194
ENCODING 194
SWIDTH 750 0
DWIDTH 12 0
BBX 12 16 0 -4
BITMAP
0000
0000
0000
0000
0000
0000
FFF0
FFF0
FFF0
FFF0
0F00
0F00
0F00
0F00
0F00
0F00
ENDCHAR

STARTCHAR onx195
ENCODING 195
SWIDTH 750 0
DWIDTH 12 0
BBX 12 16 0 -4
BITMAP
0F00
0F00
0F00
0F00
0F00
0F00
0FF0
0FF0
0FF0
0FF0
0F00
0F00
0F00
0F00
0F00
0F00
ENDCHAR

STARTCHAR onx196
ENCODING 196
SWIDTH 750 0
DWIDTH 12 0
BBX 12 16 0 -4
BITMAP
0000
0000
0000
0000
0000
0000
FFF0
FFF0
0000
0000
0000
0000
0000
0000
0000
0000
ENDCHAR

STARTCHAR onx197
ENCODING 197
SWIDTH 750 0
DWIDTH 12 0
BBX 12 16 0 -4
BITMAP
0000
0000
0000
0000
0000
0000
FFF0
FFF0
FFF0
FFF0
FFF0
FFF0
0000
0000
0000
0000
ENDCHAR

STARTCHAR onx198
ENCODING 198
SWIDTH 750 0
DWIDTH 12 0
BBX 12 16 0 -4
BITMAP
0C00
0C00
0C00
0C00
0FF0
0FF0
0C00
0C00
0C00
0C00
0FF0
0FF0
0C00
0C00
0C00
0C00
ENDCHAR

STARTCHAR onx199
ENCODING 199
SWIDTH 750 0
DWIDTH 12 0
BBX 12 16 0 -4
BITMAP
30C0
30C0
30C0
30C0
30C0
30C0
30F0
30F0
30F0
30F0
30C0
30C0
30C0
30C0
30C0
30C0
ENDCHAR

STARTCHAR onx200
ENCODING 200
SWIDTH 750 0
DWIDTH 12 0
BBX 12 16 0 -4
BITMAP
30C0
30C0
30C0
30C0
30F0
30F0
3000
3000
3000
3000
3FF0
3FF0
0000
0000
0000
0000
ENDCHAR

STARTCHAR onx201
ENCODING 201
SWIDTH 750 0
DWIDTH 12 0
BBX 12 16 0 -4
BITMAP
0000
0000
0000
0000
3FF0
3FF0
3000
3000
3000
3000
30F0
30F0
30C0
30C0
30C0
30C0
ENDCHAR

STARTCHAR onx202
ENCODING 202
SWIDTH 750 0
DWIDTH 12 0
BBX 12 16 0 -4
BITMAP
30C0
30C0
30C0
30C0
F0F0
F0F0
0000
0000
0000
0000
FFF0
FFF0
0000
0000
0000
0000
ENDCHAR

STARTCHAR onx203
ENCODING 203
SWIDTH 750 0
DWIDTH 12 0
BBX 12 16 0 -4
BITMAP
0000
0000
0000
0000
FFF0
FFF0
0000
0000
0000
0000
F0F0
F0F0
30C0
30C0
30C0
30C0
ENDCHAR

STARTCHAR onx204
ENCODING 204
SWIDTH 750 0
DWIDTH 12 0
BBX 12 16 0 -4
BITMAP
30C0
30C0
30C0
30C0
30F0
30F0
3000
3000
3000
3000
30F0
30F0
30C0
30C0
30C0
30C0
ENDCHAR

STARTCHAR onx205
ENCODING 205
SWIDTH 750 0
DWIDTH 12 0
BBX 12 16 0 -4
BITMAP
0000
0000
0000
0000
FFF0
FFF0
0000
0000
0000
0000
FFF0
FFF0
0000
0000
0000
0000
ENDCHAR

STARTCHAR onx206
ENCODING 206
SWIDTH 750 0
DWIDTH 12 0
BBX 12 16 0 -4
BITMAP
30C0
30C0
30C0
30C0
F0F0
F0F0
0000
0000
0000
0000
F0F0
F0F0
30C0
30C0
30C0
30C0
ENDCHAR

STARTCHAR onx207
ENCODING 207
SWIDTH 750 0
DWIDTH 12 0
BBX 12 16 0 -4
BITMAP
0F00
0F00
0F00
0F00
FFF0
FFF0
0000
0000
0000
0000
FFF0
FFF0
0000
0000
0000
0000
ENDCHAR

STARTCHAR onx208
ENCODING 208
SWIDTH 750 0
DWIDTH 12 0
BBX 12 16 0 -4
BITMAP
30C0
30C0
30C0
30C0
30C0
30C0
FFF0
FFF0
FFF0
FFF0
0000
0000
0000
0000
0000
0000
ENDCHAR

STARTCHAR onx209
ENCODING 209
SWIDTH 750 0
DWIDTH 12 0
BBX 12 16 0 -4
BITMAP
0000
0000
0000
0000
FFF0
FFF0
0000
0000
0000
0000
FFF0
FFF0
0F00
0F00
0F00
0F00
ENDCHAR

STARTCHAR onx210
ENCODING 210
SWIDTH 750 0
DWIDTH 12 0
BBX 12 16 0 -4
BITMAP
0000
0000
0000
0000
0000
0000
FFF0
FFF0
FFF0
FFF0
30C0
30C0
30C0
30C0
30C0
30C0
ENDCHAR

STARTCHAR onx211
ENCODING 211
SWIDTH 750 0
DWIDTH 12 0
BBX 12 16 0 -4
BITMAP
30C0
30C0
30C0
30C0
30C0
30C0
3FF0
3FF0
3FF0
3FF0
0000
0000
0000
0000
0000
0000
ENDCHAR

STARTCHAR onx212
ENCODING 212
SWIDTH 750 0
DWIDTH 12 0
BBX 12 16 0 -4
BITMAP
0F00
0F00
0F00
0F00
0FF0
0FF0
0F00
0F00
0F00
0F00
0FF0
0FF0
0000
0000
0000
0000
ENDCHAR

STARTCHAR onx213
ENCODING 213
SWIDTH 750 0
DWIDTH 12 0
BBX 12 16 0 -4
BITMAP
0000
0000
0000
0000
0FF0
0FF0
0F00
0F00
0F00
0F00
0FF0
0FF0
0F00
0F00
0F00
0F00
ENDCHAR

STARTCHAR onx214
ENCODING 214
SWIDTH 750 0
DWIDTH 12 0
BBX 12 16 0 -4
BITMAP
0000
0000
0000
0000
0000
0000
3FF0
3FF0
3FF0
3FF0
30C0
30C0
30C0
30C0
30C0
30C0
ENDCHAR

STARTCHAR onx215
ENCODING 215
SWIDTH 750 0
DWIDTH 12 0
BBX 12 16 0 -4
BITMAP
30C0
30C0
30C0
30C0
30C0
30C0
FFF0
FFF0
FFF0
FFF0
30C0
30C0
30C0
30C0
30C0
30C0
ENDCHAR

STARTCHAR onx216
ENCODING 216
SWIDTH 750 0
DWIDTH 12 0
BBX 12 16 0 -4
BITMAP
0F00
0F00
0F00
0F00
FFF0
FFF0
0F00
0F00
0F00
0F00
FFF0
FFF0
0F00
0F00
0F00
0F00
ENDCHAR

STARTCHAR onx217
ENCODING 217
SWIDTH 750 0
DWIDTH 12 0
BBX 12 16 0 -4
BITMAP
0FC0
0FC0
1FC0
1FC0
3F80
7F80
FF00
FF00
FE00
FC00
F000
C000
0000
0000
0000
0000
ENDCHAR

STARTCHAR onx218
ENCODING 218
SWIDTH 750 0
DWIDTH 12 0
BBX 12 16 0 -4
BITMAP
0000
0000
0000
0000
0000
0000
01F0
07F0
07C0
0F80
0F00
0E00
0E00
0C00
0C00
0C00
ENDCHAR

STARTCHAR onx219
ENCODING 219
SWIDTH 750 0
DWIDTH 12 0
BBX 12 16 0 -4
BITMAP
FFF0
FFF0
FFF0
FFF0
FFF0
FFF0
FFF0
FFF0
FFF0
FFF0
FFF0
FFF0
FFF0
FFF0
FFF0
FFF0
ENDCHAR

STARTCHAR onx220
ENCODING 220
SWIDTH 750 0
DWIDTH 12 0
BBX 12 16 0 -4
BITMAP
0000
0000
0000
0000
0000
0000
0000
0000
FFF0
FFF0
FFF0
FFF0
FFF0
FFF0
FFF0
FFF0
ENDCHAR

STARTCHAR onx221
ENCODING 221
SWIDTH 750 0
DWIDTH 12 0
BBX 12 16 0 -4
BITMAP
FC00
FC00
FC00
FC00
FC00
FC00
FC00
FC00
FC00
FC00
FC00
FC00
FC00
FC00
FC00
FC00
ENDCHAR

STARTCHAR onx222
ENCODING 222
SWIDTH 750 0
DWIDTH 12 0
BBX 12 16 0 -4
BITMAP
03F0
03F0
03F0
03F0
03F0
03F0
03F0
03F0
03F0
03F0
03F0
03F0
03F0
03F0
03F0
03F0
ENDCHAR

STARTCHAR onx223
ENCODING 223
SWIDTH 750 0
DWIDTH 12 0
BBX 12 16 0 -4
BITMAP
FFF0
FFF0
FFF0
FFF0
FFF0
FFF0
FFF0
FFF0
0000
0000
0000
0000
0000
0000
0000
0000
ENDCHAR

STARTCHAR onx224
ENCODING 224
SWIDTH 750 0
DWIDTH 12 0
BBX 12 16 0 -4
BITMAP
0000
0000
0000
0000
0F30
1FB0
39E0
30C0
30C0
39E0
1FB0
0F30
0000
0000
0000
0000
ENDCHAR

STARTCHAR onx225
ENCODING 225
SWIDTH 750 0
DWIDTH 12 0
BBX 12 16 0 -4
BITMAP
03C0
07E0
0E70
1C30
3830
3070
33E0
33E0
3070
3030
3C30
3E70
37E0
33C0
3000
3000
ENDCHAR

STARTCHAR onx226
ENCODING 226
SWIDTH 750 0
DWIDTH 12 0
BBX 12 16 0 -4
BITMAP
3FF0
3FF0
3030
3030
3000
3000
3000
3000
3000
3000
3000
3000
3000
3000
0000
0000
ENDCHAR

STARTCHAR onx227
ENCODING 227
SWIDTH 750 0
DWIDTH 12 0
BBX 12 16 0 -4
BITMAP
0000
0000
0000
0000
3FF0
3FF0
0CC0
0CC0
0CC0
0CC0
0CC0
0CC0
0CC0
0CC0
0000
0000
ENDCHAR

STARTCHAR onx228
ENCODING 228
SWIDTH 750 0
DWIDTH 12 0
BBX 12 16 0 -4
BITMAP
1FE0
3FF0
3030
1830
0C10
0600
0300
0300
0600
0C10
1830
3030
3FF0
1FC0
0000
0000
ENDCHAR

STARTCHAR onx229
ENCODING 229
SWIDTH 750 0
DWIDTH 12 0
BBX 12 16 0 -4
BITMAP
0000
0000
0000
0010
0FF0
1FE0
3860
3030
3030
3030
3030
3870
1FE0
0FC0
0000
0000
ENDCHAR

STARTCHAR onx230
ENCODING 230
SWIDTH 750 0
DWIDTH 12 0
BBX 12 16 0 -4
BITMAP
0000
0000
0000
0000
0C30
0C30
0C30
0C30
0C30
0C70
0FE0
0FC0
0C00
1C00
3800
3000
ENDCHAR

STARTCHAR onx231
ENCODING 231
SWIDTH 750 0
DWIDTH 12 0
BBX 12 16 0 -4
BITMAP
0000
0000
0030
0070
0FE0
1FC0
3B00
3300
0300
0300
0300
0300
0300
0300
0000
0000
ENDCHAR

STARTCHAR onx232
ENCODING 232
SWIDTH 750 0
DWIDTH 12 0
BBX 12 16 0 -4
BITMAP
0300
0300
0300
0300
0300
0300
0300
0300
0300
0300
3FF0
3FF0
1FE0
0FC0
0780
0300
ENDCHAR

STARTCHAR onx233
ENCODING 233
SWIDTH 750 0
DWIDTH 12 0
BBX 12 16 0 -4
BITMAP
03C0
07E0
0EF0
0C70
0000
0000
3030
3030
3030
3870
1FF0
0FF0
0030
0070
3FE0
3FC0
ENDCHAR

STARTCHAR onx234
ENCODING 234
SWIDTH 750 0
DWIDTH 12 0
BBX 12 16 0 -4
BITMAP
FFC0
FFC0
0000
0000
F0C0
F9C0
3F80
1F00
0E00
0E00
3F00
7F80
E3C0
C1C0
0000
0000
ENDCHAR

STARTCHAR onx235
ENCODING 235
SWIDTH 750 0
DWIDTH 12 0
BBX 12 16 0 -4
BITMAP
0000
0000
0FC0
0FC0
0300
0300
0780
0CC0
0CC0
0780
0300
0300
0FC0
0FC0
0000
0000
ENDCHAR

STARTCHAR onx236
ENCODING 236
SWIDTH 750 0
DWIDTH 12 0
BBX 12 16 0 -4
BITMAP
0000
0000
0300
0380
03C0
03E0
FFF0
FFF0
03E0
03C0
0380
0300
0000
0000
0000
0000
ENDCHAR

STARTCHAR onx237
ENCODING 237
SWIDTH 750 0
DWIDTH 12 0
BBX 12 16 0 -4
BITMAP
0000
0000
0C00
1C00
3C00
7C00
FFF0
FFF0
7C00
3C00
1C00
0C00
0000
0000
0000
0000
ENDCHAR

STARTCHAR onx238
ENCODING 238
SWIDTH 750 0
DWIDTH 12 0
BBX 12 16 0 -4
BITMAP
0000
0000
0030
0070
00C0
0180
0300
0600
0C00
1800
3000
3000
3FF0
3FF0
0000
0000
ENDCHAR

STARTCHAR onx239
ENCODING 239
SWIDTH 750 0
DWIDTH 12 0
BBX 12 16 0 -4
BITMAP
0000
0000
0000
0000
8000
C000
E000
7000
3800
1C00
0E00
0700
FF00
FF00
0000
0000
ENDCHAR

STARTCHAR onx240
ENCODING 240
SWIDTH 750 0
DWIDTH 12 0
BBX 12 16 0 -4
BITMAP
0000
0000
3FF0
3FF0
0000
0000
3FF0
3FF0
0000
0000
3FF0
3FF0
0000
0000
0000
0000
ENDCHAR

STARTCHAR onx241
ENCODING 241
SWIDTH 750 0
DWIDTH 12 0
BBX 12 16 0 -4
BITMAP
0300
0300
0300
0300
3FF0
3FF0
0300
0300
0300
0300
0000
0000
3FF0
3FF0
0000
0000
ENDCHAR

STARTCHAR onx242
ENCODING 242
SWIDTH 750 0
DWIDTH 12 0
BBX 12 16 0 -4
BITMAP
0C00
0600
0300
0180
00C0
00C0
0180
0300
0600
0C00
0000
0000
3FF0
3FF0
0000
0000
ENDCHAR

STARTCHAR onx243
ENCODING 243
SWIDTH 750 0
DWIDTH 12 0
BBX 12 16 0 -4
BITMAP
00C0
0180
0300
0600
0C00
0C00
0600
0700
0180
00C0
0000
0000
3FF0
3FF0
0000
0000
ENDCHAR

STARTCHAR onx244
ENCODING 244
SWIDTH 750 0
DWIDTH 12 0
BBX 12 16 0 -4
BITMAP
0000
0000
00C0
01E0
0330
0330
0330
0330
0300
0300
0300
0300
0300
0300
0300
0300
ENDCHAR

STARTCHAR onx245
ENCODING 245
SWIDTH 750 0
DWIDTH 12 0
BBX 12 16 0 -4
BITMAP
0300
0300
0300
0300
0300
0300
0300
0300
3300
3300
3300
3300
1E00
0C00
0000
0000
ENDCHAR

STARTCHAR onx246
ENCODING 246
SWIDTH 750 0
DWIDTH 12 0
BBX 12 16 0 -4
BITMAP
0000
0000
0300
0300
0000
0000
3FF0
3FF0
0000
0000
0300
0300
0000
0000
0000
0000
ENDCHAR

STARTCHAR onx247
ENCODING 247
SWIDTH 750 0
DWIDTH 12 0
BBX 12 16 0 -4
BITMAP
0000
0000
0C00
1E00
3330
3330
01E0
00C0
0C00
1E00
3330
3330
01E0
00C0
0000
0000
ENDCHAR

STARTCHAR onx248
ENCODING 248
SWIDTH 750 0
DWIDTH 12 0
BBX 12 16 0 -4
BITMAP
0F00
1F80
39C0
30C0
30C0
39C0
1F80
0F00
0000
0000
0000
0000
0000
0000
0000
0000
ENDCHAR

STARTCHAR onx249
ENCODING 249
SWIDTH 750 0
DWIDTH 12 0
BBX 12 16 0 -4
BITMAP
0F00
0F00
3FC0
3FC0
3FC0
3FC0
0F00
0F00
0000
0000
0000
0000
0000
0000
0000
0000
ENDCHAR

STARTCHAR onx250
ENCODING 250
SWIDTH 750 0
DWIDTH 12 0
BBX 12 16 0 -4
BITMAP
0000
0000
0000
0000
0FC0
0FC0
0FC0
0FC0
0FC0
0FC0
0000
0000
0000
0000
0000
0000
ENDCHAR

STARTCHAR onx251
ENCODING 251
SWIDTH 750 0
DWIDTH 12 0
BBX 12 16 0 -4
BITMAP
0FF0
0FF0
0C00
0C00
0C00
0C00
0C00
0C00
8C00
CC00
6C00
3C00
1C00
0C00
0000
0000
ENDCHAR

STARTCHAR onx252
ENCODING 252
SWIDTH 750 0
DWIDTH 12 0
BBX 12 16 0 -4
BITMAP
3830
1C70
0EC0
0780
0380
07C0
1CE0
3870
0000
0000
0000
0000
0000
0000
0000
0000
ENDCHAR

STARTCHAR onx253
ENCODING 253
SWIDTH 750 0
DWIDTH 12 0
BBX 12 16 0 -4
BITMAP
1C00
3E00
0300
0300
0600
0C00
1800
3000
3F00
3F00
0000
0000
0000
0000
0000
0000
ENDCHAR

STARTCHAR onx254
ENCODING 254
SWIDTH 750 0
DWIDTH 12 0
BBX 12 16 0 -4
BITMAP
0000
0000
0FC0
0FC0
0FC0
0FC0
0FC0
0FC0
0FC0
0FC0
0FC0
0FC0
0000
0000
0000
0000
ENDCHAR

STARTCHAR onx255
ENCODING 255
SWIDTH 750 0
DWIDTH 12 0
BBX 12 16 0 -4
BITMAP
0000
0000
0000
0000
0000
0000
0000
0000
0000
0000
0000
0000
0000
0000
0000
0000
ENDCHAR
ENDFONT
